<?xml version="1.0" encoding="utf-8"?>
<!-- Generator: Adobe Illustrator 28.2.0, SVG Export Plug-In . SVG Version: 6.00 Build 0)  -->
<svg version="1.1" id="Layer_1" xmlns="http://www.w3.org/2000/svg" xmlns:xlink="http://www.w3.org/1999/xlink" x="0px" y="0px"
	 viewBox="0 0 576 576" style="enable-background:new 0 0 576 576;" xml:space="preserve">
<style type="text/css">
	.st0{fill:#9F8464;}
</style>
<g id="Cz8N8A.tif">
	<g>
		<path class="st0" d="M51.91,287.65c1.71-119.38,90.88-219.39,209.34-233.16c125.91-14.63,240.11,71.82,259.92,197.07
			c4.73,29.89,3.86,59.8-3.69,89.22c-0.98,3.83-4.62,9.6-7.29,9.75c-3.79,0.21-9.08-3.03-11.57-6.4
			c-19.26-26.11-27.71-75.68-46.65-102.03c-13.31-18.51-25.18-15.41-38.64,3.22c-8.67,12.01-31.11,44.26-39.92,56.17
			c-11.29,15.26-27.18,15.32-38.31-0.12c-30.73-42.63-57.98-105.42-88.59-148.13c-13.04-18.19-28.82-18.33-41.85-0.17
			c-39.47,55.03-82.01,130.11-121.4,185.2c-1.44,2.01-2.51,4.52-4.41,5.9c-3.66,2.67-7.89,6.58-11.68,6.37
			c-2.67-0.15-6.56-5.97-7.24-9.74C56.76,323.18,54.5,305.39,51.91,287.65z"/>
		<path class="st0" d="M288.77,523.12c-66.38-1.37-122.73-24.89-169.06-71.88c-12.26-12.43-12.64-19.34-2.48-33.12
			c11.29-15.33,22.57-30.67,33.89-45.97c10.52-14.21,18.58-14.31,28.95-0.4c4.21,5.65,8.21,11.47,12.57,17.02
			c7.97,10.14,17.47,10.16,25.28-0.26c15.64-20.88,30.96-42.01,46.52-62.95c9.31-12.54,18.09-12.47,27.57,0.23
			c21.73,29.1,43.59,58.11,64.93,87.49c10.22,14.08,25.93-29.58,43.06-29.76c17.29-0.19,32.19,49.74,49.46,50.33
			c4.25,0.15,10.81,2.42,11.94,5.38c1.22,3.22-1.49,9.51-4.46,12.52C410.6,498.73,354.1,521.96,288.77,523.12z"/>
	</g>
</g>
</svg>
